<svg width="153" height="119" viewBox="0 0 153 119" fill="none" xmlns="http://www.w3.org/2000/svg">
<path fill-rule="evenodd" clip-rule="evenodd" d="M76.4989 90.8054L0 118.999V108.018C0 102.223 3.32873 97.2537 8.4828 95.3535L67.3757 73.6508V54.4427C67.3757 49.0904 71.4602 44.7517 76.4989 44.7517C83.0793 44.7517 88.4408 39.0597 88.4408 32.0688C88.4408 25.0764 83.0815 19.3859 76.4989 19.3859C69.9177 19.3859 64.5592 25.0776 64.5592 32.0688C64.5592 37.4196 60.4736 41.7598 55.436 41.7598C50.3984 41.7598 46.3118 37.4196 46.3118 32.0688C46.3118 14.4501 59.7668 0 76.3832 0H76.6168C93.2332 0 106.688 14.4501 106.688 32.0688C106.688 46.0922 98.0677 58.4455 85.6243 62.6391V73.6508L144.517 95.3535C149.671 97.2537 153 102.223 153 108.018V119L76.4989 90.8054V90.8054Z" fill="white"/>
</svg>
